Coordinates
version=1
nRows=34
nColumns=34
inDegrees=no

Units are S.I. units (second, meters, Newtons, ...)
If the header above contains a line with 'inDegrees', this indicates whether rotational values are in degrees (yes) or radians (no).

endheader
time	pelvis_tilt	pelvis_list	pelvis_rotation	pelvis_tx	pelvis_ty	pelvis_tz	hip_flexion_r	hip_adduction_r	hip_rotation_r	knee_angle_r	ankle_angle_r	subtalar_angle_r	mtp_angle_r	hip_flexion_l	hip_adduction_l	hip_rotation_l	knee_angle_l	ankle_angle_l	subtalar_angle_l	mtp_angle_l	lumbar_extension	lumbar_bending	lumbar_rotation	arm_flex_r	arm_add_r	arm_rot_r	elbow_flex_r	pro_sup_r	arm_flex_l	arm_add_l	arm_rot_l	elbow_flex_l	pro_sup_l
0.5	0.215568	-0.0846224	0.0837542	0.363477	0.917475	-0.204878	-0.292533	0.110747	-0.232697	0.257087	0.338817	0.25845	-0.0544194	0.375749	-0.188352	-0.186121	0.562309	0.173399	0.0612029	-0.0544927	-0.548344	0.00826846	0.0846723	0.448814	-0.300262	0.409597	0.477944	1.1564	0.242512	-0.191336	0.261097	0.519651	1.19461
0.51	0.212708	-0.0795103	0.0806495	0.373937	0.916376	-0.204569	-0.300239	0.103395	-0.236756	0.262257	0.343947	0.267801	-0.0544131	0.36949	-0.179129	-0.189727	0.504569	0.181836	0.0785438	-0.0544864	-0.546807	-0.00711696	0.0867086	0.452364	-0.297426	0.405892	0.479221	1.15568	0.245633	-0.191817	0.254436	0.518511	1.18837
0.52	0.209938	-0.074523	0.0766368	0.384544	0.915272	-0.204281	-0.308305	0.0957648	-0.240185	0.267159	0.347945	0.277163	-0.0544068	0.361578	-0.170433	-0.193306	0.446281	0.190462	0.0951598	-0.0544801	-0.545321	-0.0228403	0.0893372	0.454807	-0.294301	0.401277	0.480821	1.15492	0.248612	-0.192233	0.246785	0.51729	1.18061
0.53	0.20728	-0.0698008	0.071731	0.395315	0.914162	-0.204016	-0.316732	0.0879736	-0.242978	0.271798	0.350817	0.286575	-0.0544004	0.352277	-0.162482	-0.196632	0.388269	0.199366	0.110766	-0.0544737	-0.543825	-0.0387244	0.0925935	0.456233	-0.290972	0.396437	0.482633	1.15402	0.251361	-0.192603	0.238203	0.516102	1.17157
0.54	0.20474	-0.065461	0.0659835	0.406262	0.913042	-0.203783	-0.325506	0.0801304	-0.24512	0.276181	0.352595	0.29604	-0.0543941	0.341917	-0.15545	-0.199353	0.331538	0.208693	0.125132	-0.0544674	-0.542241	-0.0545959	0.096477	0.456717	-0.287521	0.392011	0.484558	1.15291	0.253793	-0.19296	0.228879	0.515029	1.16162
0.55	0.202308	-0.0615849	0.0594833	0.417398	0.911907	-0.203595	-0.334603	0.0723262	-0.246588	0.280305	0.353334	0.305512	-0.0543878	0.330888	-0.149454	-0.201041	0.277249	0.218602	0.138037	-0.0544611	-0.540476	-0.0703	0.100943	0.456314	-0.284023	0.388566	0.486509	1.15159	0.255826	-0.19335	0.219089	0.514119	1.15129
0.56	0.199957	-0.0582053	0.052355	0.428736	0.910752	-0.203467	-0.343992	0.0646229	-0.247353	0.284162	0.353106	0.314898	-0.0543815	0.319616	-0.144548	-0.201283	0.226667	0.229209	0.149263	-0.0544548	-0.538433	-0.0857162	0.105898	0.455055	-0.280538	0.386569	0.488415	1.15017	0.257387	-0.193832	0.209132	0.513391	1.14112
0.57	0.197656	-0.0552964	0.0447544	0.440286	0.909569	-0.203416	-0.353645	0.0570398	-0.247397	0.287749	0.351998	0.32407	-0.0543752	0.308529	-0.14071	-0.199767	0.181073	0.240501	0.158628	-0.0544485	-0.536029	-0.100775	0.111196	0.452948	-0.277111	0.386363	0.49022	1.14883	0.258417	-0.194465	0.199276	0.512836	1.13162
0.58	0.195383	-0.0527665	0.0368594	0.452059	0.908356	-0.203459	-0.363548	0.0495391	-0.246734	0.291074	0.350104	0.332878	-0.0543689	0.298006	-0.137829	-0.196371	0.141638	0.252255	0.16603	-0.0544422	-0.533217	-0.115473	0.116641	0.44998	-0.273769	0.388149	0.491893	1.14789	0.25888	-0.195311	0.18971	0.512425	1.12316
0.59	0.193146	-0.050455	0.0288593	0.464058	0.907105	-0.203614	-0.373705	0.0420143	-0.245431	0.29418	0.34752	0.341178	-0.0543626	0.288321	-0.135689	-0.191188	0.109286	0.26396	0.17148	-0.0544359	-0.530009	-0.12988	0.121997	0.446126	-0.27052	0.391963	0.493424	1.14768	0.258764	-0.196424	0.180529	0.512122	1.116
0.6	0.190998	-0.0481367	0.0209418	0.476288	0.905814	-0.203894	-0.384145	0.0342873	-0.243629	0.297158	0.34433	0.348847	-0.0543563	0.279589	-0.133965	-0.184509	0.08455	0.274768	0.175074	-0.0544296	-0.526498	-0.144141	0.126999	0.44136	-0.267357	0.397679	0.494829	1.14859	0.258094	-0.19785	0.171753	0.511881	1.11022
0.61	0.189051	-0.0455383	0.0132802	0.48875	0.904483	-0.204315	-0.394918	0.0261173	-0.241537	0.300169	0.340582	0.355784	-0.05435	0.271726	-0.132224	-0.176741	0.0674671	0.2835	0.176934	-0.0544232	-0.522872	-0.158461	0.131372	0.435668	-0.264257	0.405009	0.496146	1.1509	0.256933	-0.19962	0.163354	0.511652	1.10577
0.62	0.187475	-0.0423713	0.00602344	0.501441	0.903115	-0.204891	-0.406081	0.0172296	-0.239408	0.303456	0.336247	0.36188	-0.0543437	0.264456	-0.129967	-0.168313	0.0575479	0.288724	0.177112	-0.0544169	-0.519414	-0.173078	0.134846	0.429061	-0.261186	0.41353	0.497425	1.15482	0.255385	-0.201757	0.155311	0.511373	1.10247
0.63	0.186477	-0.0383427	-0.000715735	0.51433	0.901756	-0.205633	-0.417672	0.00735848	-0.237498	0.307355	0.331185	0.366977	-0.0543374	0.257339	-0.126688	-0.159591	0.0538326	0.288926	0.175523	-0.0544106	-0.516477	-0.188223	0.137186	0.421582	-0.258098	0.422725	0.498719	1.16035	0.253592	-0.204272	0.147653	0.510964	1.10013
0.64	0.186295	-0.0332227	-0.00685947	0.527393	0.900441	-0.206549	-0.429672	-0.00371906	-0.236013	0.312303	0.325097	0.370812	-0.0543311	0.249866	-0.121934	-0.150842	0.0550469	0.282757	0.171933	-0.0544043	-0.514453	-0.204089	0.138195	0.413316	-0.254936	0.432032	0.500064	1.16727	0.251726	-0.207172	0.140486	0.510317	1.09845
0.65	0.187145	-0.0268585	-0.0123642	0.540598	0.899213	-0.207638	-0.441962	-0.0161467	-0.235069	0.318838	0.317508	0.372979	-0.0543248	0.241562	-0.115376	-0.142268	0.059832	0.269326	0.166044	-0.054398	-0.513723	-0.220802	0.137732	0.404383	-0.251625	0.440912	0.501459	1.17516	0.249983	-0.210462	0.134008	0.509297	1.09716
0.66	0.189184	-0.0191905	-0.0172134	0.553904	0.89812	-0.208895	-0.454275	-0.0299684	-0.234665	0.327594	0.307759	0.372906	-0.0543185	0.232119	-0.106866	-0.134079	0.0670008	0.248481	0.157658	-0.0543917	-0.5146	-0.238395	0.135703	0.394939	-0.248077	0.448905	0.502851	1.18342	0.248568	-0.214147	0.128487	0.507734	1.09593
0.67	0.192466	-0.0102512	-0.021408	0.567268	0.897212	-0.210309	-0.466164	-0.0451286	-0.234675	0.339279	0.295045	0.36987	-0.0543122	0.22149	-0.0964631	-0.126594	0.0757532	0.22101	0.146865	-0.0543854	-0.517277	-0.256802	0.132059	0.385161	-0.244187	0.455678	0.504124	1.19133	0.247677	-0.218232	0.124225	0.505437	1.09446
0.68	0.196909	-0.000148667	-0.0249552	0.580644	0.896528	-0.211864	-0.476988	-0.0614927	-0.23488	0.35464	0.278483	0.363055	-0.0543059	0.209939	-0.0844178	-0.120288	0.0857863	0.188671	0.1342	-0.0543791	-0.52178	-0.275875	0.126781	0.375236	-0.239839	0.461057	0.505095	1.19817	0.247482	-0.22272	0.121506	0.502206	1.09246
0.69	0.202282	0.0109628	-0.02786	0.593981	0.896082	-0.213539	-0.48593	-0.0788875	-0.23501	0.374418	0.257233	0.351649	-0.0542996	0.198015	-0.0711199	-0.115777	0.0972608	0.15403	0.12067	-0.0543728	-0.527954	-0.295405	0.119865	0.365346	-0.234913	0.465025	0.50553	1.20336	0.248118	-0.227607	0.120539	0.497849	1.08968
0.7	0.208206	0.0229161	-0.0301217	0.607216	0.895873	-0.215314	-0.492052	-0.0971443	-0.234799	0.399276	0.230635	0.334966	-0.0542933	0.186449	-0.0570138	-0.11371	0.11063	0.120105	0.107638	-0.0543665	-0.535469	-0.315155	0.111305	0.355655	-0.229305	0.467707	0.50517	1.20652	0.249663	-0.232874	0.121409	0.492209	1.08597
0.71	0.214195	0.0355612	-0.0317379	0.620299	0.895873	-0.217172	-0.494375	-0.116128	-0.234033	0.429727	0.198368	0.312554	-0.054287	0.176005	-0.042516	-0.114623	0.126378	0.0898806	0.0965969	-0.0543602	-0.543856	-0.334886	0.101101	0.346304	-0.22294	0.469329	0.503772	1.20759	0.252136	-0.238481	0.124049	0.485187	1.0813
0.72	0.21972	0.0487676	-0.0327182	0.633194	0.896084	-0.219098	-0.491994	-0.135732	-0.232551	0.466052	0.160593	0.284278	-0.0542807	0.167311	-0.0279601	-0.118777	0.144741	0.0658193	0.0888671	-0.054354	-0.552553	-0.354356	0.0892735	0.337397	-0.215798	0.470178	0.501158	1.20679	0.255483	-0.244359	0.128231	0.476765	1.07579
0.73	0.22429	0.0623976	-0.033104	0.645882	0.896491	-0.221081	-0.48419	-0.155852	-0.230229	0.508224	0.118054	0.250357	-0.0542744	0.160707	-0.0135707	-0.126056	0.165497	0.0494655	0.0853199	-0.0543477	-0.560976	-0.37332	0.0758988	0.329001	-0.20793	0.470566	0.497267	1.20454	0.259589	-0.250415	0.133595	0.467018	1.06968
0.74	0.227531	0.0762725	-0.0329895	0.658337	0.897065	-0.223116	-0.470544	-0.17634	-0.226945	0.55587	0.0721184	0.211363	-0.0542681	0.156147	0.000527365	-0.135926	0.187882	0.0412484	0.0861776	-0.0543414	-0.568597	-0.391515	0.0611467	0.321145	-0.199479	0.470797	0.49219	1.20138	0.264279	-0.256523	0.139696	0.456122	1.06334
0.75	0.229254	0.0901427	-0.0325396	0.670543	0.897793	-0.225196	-0.45102	-0.196959	-0.222545	0.608255	0.024726	0.168192	-0.0542619	0.153168	0.0142736	-0.147506	0.210647	0.0405217	0.0909565	-0.0543351	-0.57501	-0.408646	0.0453098	0.313824	-0.190684	0.471154	0.486186	1.19786	0.269336	-0.262537	0.146069	0.44435	1.05719
0.76	0.229501	0.103668	-0.0319946	0.682499	0.898662	-0.227309	-0.425987	-0.217349	-0.216829	0.664327	-0.0217616	0.121998	-0.0542556	0.150954	0.0276181	-0.159707	0.232256	0.0458163	0.0985708	-0.0543288	-0.579986	-0.424373	0.028813	0.307012	-0.18187	0.471889	0.479671	1.19444	0.274524	-0.268298	0.152306	0.432058	1.05169
0.77	0.228539	0.116419	-0.0316564	0.694219	0.899658	-0.229436	-0.39618	-0.237012	-0.209557	0.722788	-0.0648132	0.0741139	-0.0542493	0.148462	0.0404662	-0.171422	0.251148	0.0552246	0.107573	-0.0543225	-0.583492	-0.438321	0.0121958	0.30067	-0.17343	0.473205	0.473177	1.19146	0.279613	-0.273645	0.15812	0.419657	1.04728
0.78	0.226816	0.127906	-0.0318593	0.705722	0.900785	-0.231557	-0.362608	-0.255337	-0.200476	0.782205	-0.102046	0.0259449	-0.054243	0.144597	0.0526404	-0.181726	0.266	0.0668087	0.116466	-0.0543162	-0.585668	-0.450103	-0.00393038	0.294756	-0.165784	0.475237	0.467289	1.1891	0.2844	-0.278439	0.163402	0.407582	1.04432
0.79	0.224881	0.137638	-0.03293	0.71701	0.902048	-0.233646	-0.326424	-0.271652	-0.189372	0.841123	-0.131552	-0.0211163	-0.0542367	0.138368	0.0638824	-0.190003	0.275907	0.0789217	0.123983	-0.05431	-0.586789	-0.459368	-0.0189469	0.289227	-0.159325	0.478024	0.462576	1.18745	0.288732	-0.282576	0.168228	0.396254	1.04306
0.8	0.223291	0.145191	-0.0351455	0.728099	0.903443	-0.235679	-0.288792	-0.285321	-0.176128	0.898174	-0.152167	-0.065776	-0.0542305	0.129019	0.0738922	-0.196013	0.280463	0.090393	0.129282	-0.0543037	-0.5872	-0.465858	-0.0323024	0.284043	-0.154375	0.481477	0.459517	1.18653	0.292514	-0.286005	0.172853	0.386044	1.04367
0.81	0.222519	0.15028	-0.0386913	0.73899	0.904988	-0.23763	-0.250772	-0.29583	-0.160773	0.952155	-0.163611	-0.106912	-0.0542242	0.116099	0.0823938	-0.199862	0.279733	0.100568	0.132025	-0.0542974	-0.587256	-0.46946	-0.0435857	0.279155	-0.151138	0.485367	0.458446	1.18637	0.295711	-0.288737	0.177651	0.377245	1.04622
0.82	0.222885	0.152815	-0.0436292	0.749691	0.906658	-0.239477	-0.213239	-0.30287	-0.143524	1.00208	-0.166474	-0.143631	-0.0542179	0.0994936	0.0892033	-0.201916	0.274155	0.109231	0.132346	-0.0542911	-0.587271	-0.470233	-0.0525822	0.274507	-0.149674	0.48933	0.45952	1.18699	0.298336	-0.290847	0.183044	0.370062	1.05064
0.83	0.224517	0.152909	-0.0498752	0.760219	0.908457	-0.241216	-0.176845	-0.306386	-0.124786	1.0472	-0.162046	-0.175312	-0.0542116	0.0793961	0.0942809	-0.202658	0.264414	0.11647	0.130723	-0.0542849	-0.587481	-0.468411	-0.0593078	0.270028	-0.149897	0.492894	0.462714	1.18848	0.30043	-0.292466	0.189422	0.364611	1.05679
